<?xml version="1.0" standalone="no"?>
<!DOCTYPE svg PUBLIC "-//W3C//DTD SVG 1.1//EN" "http://www.w3.org/Graphics/SVG/1.1/DTD/svg11.dtd" >
<svg xmlns="http://www.w3.org/2000/svg" xmlns:xlink="http://www.w3.org/1999/xlink" version="1.1">
<metadata>
Created by FontForge 20141024 at Tue Jun 23 03:51:20 2015
 By Jimmy Warting
 Imagex 2015
</metadata>
<defs>
<font id="BreakItDown" horiz-adv-x="2169" >
  <font-face 
    font-family="Break It Down"
    font-weight="400"
    font-stretch="normal"
    units-per-em="2048"
    panose-1="3 0 6 0 0 0 0 0 0 0"
    ascent="1638"
    descent="-410"
    cap-height="2334"
    bbox="60 -925 3138 2591"
    underline-thickness="150"
    underline-position="-142"
    unicode-range="U+0020-201D"
  />
<missing-glyph horiz-adv-x="1898" 
d="M100 0v2359h1698v-2359h-1698zM180 80h1538v2199h-1538v-2199z" />
    <glyph glyph-name=".notdef" horiz-adv-x="1898" 
d="M100 0v2359h1698v-2359h-1698zM180 80h1538v2199h-1538v-2199z" />
    <glyph glyph-name=".null" horiz-adv-x="0" 
 />
    <glyph glyph-name="nonmarkingreturn" horiz-adv-x="550" 
 />
    <glyph glyph-name="space" unicode=" " horiz-adv-x="819" 
 />
    <glyph glyph-name="space" unicode="&#xa0;" horiz-adv-x="819" 
 />
    <glyph glyph-name="comma" unicode="," horiz-adv-x="998" 
d="M134 424h331l17 -8q-221 -667 -238 -688q-90 -25 -127 -25v704q3 17 17 17zM838 390q17 -2 17 -17v-509q0 -19 -517 -136q0 -8 -77 -25v8l229 679h348zM889 -178l9 -17v-170q0 -12 -102 -102q-135 84 -263 195v9q27 0 356 85zM456 -272q280 -200 280 -212l-263 -254h-373
v382z" />
    <glyph glyph-name="hyphen" unicode="-" horiz-adv-x="1728" 
d="M117 1163h653q-10 -22 -670 -399v382q3 17 17 17zM1364 1137v-8l-280 -747h-678q0 14 -196 365v8q42 42 654 382h500zM1611 1103q17 -3 17 -17v-738h-518q229 609 297 755h204zM193 738q166 -303 187 -356h-255v322q11 34 68 34z" />
    <glyph glyph-name="period" unicode="." horiz-adv-x="972" 
d="M117 441h280v-8q-239 -316 -297 -382v373q3 17 17 17zM456 390h399q17 -2 17 -17v-432q0 -20 -755 -230v246q305 408 339 433zM872 -93v-272h-755v51z" />
    <glyph glyph-name="zero" unicode="0" horiz-adv-x="2126" 
d="M541 2300h603q0 -22 -908 -306q0 11 305 306zM1619 2249q49 0 221 -195q11 0 186 -187v-1120q0 -57 -237 -781q-43 -17 -1129 -153v-25q402 59 1366 178v-331q0 -11 -382 -382h-729l-374 764l365 365v-374h365v1485h-365v-1069q-180 -197 -373 -390l-212 424
q322 1536 348 1604q560 187 628 187h322zM635 2071q-323 -1506 -323 -1536h-17q-144 288 -144 339v1018q0 47 356 145q53 34 128 34zM100 704h17l721 -1476h-356q-12 0 -382 382v161h8q630 -502 679 -535l9 17q-667 523 -696 560v891zM2050 632h8v-628q-162 -25 -220 -25
q212 631 212 653z" />
    <glyph glyph-name="one" unicode="1" horiz-adv-x="1380" 
d="M558 2274h705q17 -2 17 -17v-314l-790 280v9q22 42 68 42zM414 2181q26 0 518 -178h8v-17q-61 -36 -475 -365q-152 -128 -187 -128h-178v374q0 11 314 314zM1000 2020q263 -85 263 -102v-628q-125 -125 -756 -671v9q224 1205 246 1205q10 0 247 187zM677 1757v-9
q-195 -975 -195 -993h-9v738h-135v9q33 19 339 255zM1229 1213v-1145q-496 -212 -518 -212q-214 139 -238 178v492q0 44 119 127q619 560 637 560zM1280 42v-560q-460 324 -493 357zM380 17h9q195 -136 220 -170q37 -2 526 -373v-195h-755v738z" />
    <glyph glyph-name="two" unicode="2" horiz-adv-x="2143" 
d="M1509 2291h127q11 0 178 -178v-8l-433 -247v9q107 414 128 424zM863 2318h577l17 -9q-204 -704 -204 -747h-102q-17 6 -254 628q-6 3 -51 119zM804 2223q17 0 306 -755h-229v-187h-756v560q362 382 399 382h280zM1797 2054q12 0 195 -196v-1103q-1015 -305 -1094 -339
q-210 121 -229 127v9l568 577v364l17 -8q68 331 136 331q12 0 407 238zM2043 713q-320 -331 -577 -577h-8q-450 254 -450 263q964 297 1035 314zM623 522q673 -376 721 -416q-12 0 -110 -111h280q27 -18 127 -297h-8l-1086 -390l-408 730q207 196 484 484zM1585 25h416v-755
h-119q-42 49 -297 755zM134 -53l442 -772h-467v747q0 12 25 25zM1695 -340q170 -423 170 -432h-1222q-34 17 -34 51l1086 390v-9z" />
    <glyph glyph-name="three" unicode="3" 
d="M321 2249h1281q12 0 390 -391v-76q0 -13 -161 -127l-653 161q0 16 186 424h-25q-331 -747 -348 -747h-535v9q-67 462 -127 738h-8v9zM134 2172h187q0 -8 -9 -8q9 -26 127 -747h-322v738q3 17 17 17zM1161 1799q424 -102 450 -119q280 -825 280 -848q-12 0 -85 -85
q184 -185 186 -212v-314q-1 -11 -755 -399l-1120 -569v348q297 391 322 407h798v365h-119q-5 23 -611 730l-8 17v9h738v364h-212v9q93 194 136 297zM1670 1655q353 -87 356 -102v-637q0 -11 -84 -84zM391 1136q38 -29 603 -713h-153q-69 20 -450 203v510zM499 501h8
q261 -128 365 -170v-9h-373v179zM2065 188v-518q0 -49 -195 -220q0 -12 -187 -187h-1434v9l1807 916h9zM100 42h280v-8q-267 -352 -280 -357v365z" />
    <glyph glyph-name="four" unicode="4" horiz-adv-x="2508" 
d="M1449 2249h535q17 -3 17 -17v-136l-1188 -484q258 269 636 637zM2052 2045v-874q-611 526 -671 594zM1305 1791q12 -33 543 -501l119 -85q34 -25 34 -34v-416h17q-35 -31 -857 -365q475 1059 475 1078l-17 9l-543 -1231h-9l-59 501l17 8h221v348l-246 -237q-9 48 -85 763
zM864 1595h8q77 -755 85 -755q0 -13 -85 -102q94 0 94 -17q76 -676 76 -738h-484q-16 0 -458 441v484q629 645 653 645q83 42 111 42zM2391 755q17 -2 17 -17v-738h-373v-297l-755 -263v560h-153l-26 221l17 -9q52 178 145 178q834 365 916 365h212zM108 348h9
q407 -391 407 -399h-399q-17 0 -17 17v382zM2001 -399v-424h-755v153q16 22 543 203q198 68 212 68z" />
    <glyph glyph-name="five" unicode="5" horiz-adv-x="2211" 
d="M117 2266h255q76 0 568 -204v-8q-836 -637 -840 -637v832q3 17 17 17zM575 2249h1451q17 -3 17 -17v-569h-8q-13 0 -1460 577v9zM1033 2037q693 -280 1010 -399v-145h-1120v-364h713q46 0 68 -43q-27 -9 -1231 -713h-305v985q64 64 865 679zM1840 1069q0 -5 76 -85
q-195 -854 -212 -908q-404 -203 -416 -203v8q509 1130 552 1188zM1729 1044l26 -34q-433 -942 -458 -1010h-9v348h-526q-9 0 -59 93v9q30 30 500 297q493 297 526 297zM1950 942l161 -170v-517q0 -17 -365 -187v8q9 56 196 866h8zM677 407q33 -65 42 -76v-9h-203
q133 94 161 94v-9zM142 195h756v-187h356q0 -22 -254 -568q-71 -164 -94 -187h-382q-11 0 -382 382v560zM2077 170v-560q0 -12 -382 -382h-695v8l246 526z" />
    <glyph glyph-name="six" unicode="6" horiz-adv-x="2143" 
d="M652 2308l17 -8q-535 -1077 -552 -1095v721q362 382 399 382h136zM719 2249h892q11 0 390 -391v-84q-1282 458 -1282 475zM736 2215h17q0 -34 264 -110l1018 -382q8 -15 8 -34v-408h-755v187h-365v-93q-8 3 -399 399zM482 1782q144 -158 399 -424v-229h730q11 0 186 -187
q-570 -564 -577 -569h-339v-365h365v230q0 17 339 127q376 144 416 144v-874q0 -10 -255 -255l-1145 382l-340 1596q204 416 221 424zM210 1315h17l323 -1544h-9l-441 144v1154q0 17 110 246zM1857 942q11 0 186 -187v-186q-20 -30 -755 -281v85q255 266 569 569zM168 -178
h8q12 0 1596 -526v-9l-111 -102h-1111q-12 0 -382 382v255z" />
    <glyph glyph-name="seven" unicode="7" horiz-adv-x="2118" 
d="M1678 2325h289q17 -3 17 -17v-509q-41 37 -306 526zM100 2249h1528q28 -17 135 -212v-9q-1473 -535 -1502 -535h-161v756zM1823 1977q195 -317 195 -373v-127q-7 -20 -221 -221q-614 484 -628 484v17l654 229v-9zM1110 1765q254 -203 254 -221l111 -551q-11 0 -246 -246
v-51h-9q-391 331 -526 467q11 0 331 330h-670v9zM1449 1426q157 -114 348 -272q0 -10 -246 -246q-102 506 -102 518zM677 1137q451 -383 552 -492v-959l-756 314v933q0 12 204 204zM422 -26q703 -299 756 -330v-102q-71 -71 -408 -297h-348v729zM1263 -535h8v-237
q0 -17 -17 -17h-339q33 33 348 254z" />
    <glyph glyph-name="eight" unicode="8" 
d="M1271 2359h357q11 0 381 -382v-59q0 -16 -492 -1086h-8q0 30 -255 1519zM533 2257h696q25 0 101 -551q68 -348 399 -2368l-85 -76h-1120q-12 0 -51 51q240 316 306 390q182 260 246 314h238v365h-365v-314l-747 68v246l747 882v-127h365v365h-365v-178q0 -35 -145 -195
q-206 -247 -212 -247h-8q-246 1099 -246 1138zM210 2037h9q246 -1113 246 -1146q-18 -10 -357 -416h-8v144l178 187l-178 187v933q0 12 110 111zM2009 1740h9v-798l-178 -187l178 -186v-43q0 -20 -416 -255h-8q0 35 -68 416q458 982 483 1053zM2069 501v-857q0 -12 -43 -43
q-280 59 -280 76l-93 578q16 0 416 246zM117 85l747 -60v-25q-413 -650 -450 -696l-297 306v475zM1738 -416l254 -59q0 -12 -203 -204h-9z" />
    <glyph glyph-name="nine" unicode="9" horiz-adv-x="2160" 
d="M550 2334h687q0 -17 -679 -255q-320 -127 -399 -144v8q0 12 391 391zM1432 2283h221q49 0 221 -195q11 0 186 -187v-917h-8q-143 309 -637 1290zM1330 2257q204 -404 204 -416l-339 -339h-314v-331q-131 -160 -246 -187q-35 -8 -501 -186l-9 17v1001q0 28 391 153
q735 288 814 288zM1543 1824l212 -424q-323 -1536 -348 -1604q-65 -17 -1086 -356l-196 204v543q3 17 17 17h739v-187h365v365h-739q-11 0 -178 178l34 42h-8q0 -11 -77 -76l-178 187q29 27 569 220l-9 -17h9l212 221h365v356l-9 17zM1780 1307h17q221 -441 221 -484v-882
l-560 -179v9q322 1506 322 1536zM2001 -93v-331q0 -12 -382 -382h-1112q-11 0 -161 161v8q335 102 1655 544z" />
    <glyph glyph-name="A" unicode="A" horiz-adv-x="2277" 
d="M666 2385h1103q13 0 34 -34l-1519 -501v153q0 11 382 382zM1710 2189l322 -331v-466q-210 -228 -1510 -1570l-212 424q322 1536 348 1604q1033 339 1052 339zM632 1918q-322 -1506 -322 -1536h-17q-119 247 -119 263v1137l458 144v-8zM912 1493v-746h374v746h-374z
M2143 1383v-1689q-51 -8 -747 -271v611h-374v-747h-101q-17 0 -280 552zM165 484h9q35 -87 602 -1231h-178q-433 343 -433 348v883zM2177 -373v-391h-747v119q12 0 747 272zM100 -529q359 -275 390 -314h-390v314z" />
    <glyph glyph-name="B" unicode="B" horiz-adv-x="2226" 
d="M168 2342h263v-8q-255 -436 -255 -450h-8v458zM533 2240h1188q11 0 382 -382v-432l-1689 611v8q109 194 119 195zM312 2020l654 -229v-17q-12 0 -815 -628v568q0 24 161 306zM991 1774q758 -272 772 -272v-9q-118 -117 -1273 -1128v8q229 1152 246 1205zM898 1493v-373
h373v373h-373zM1830 1481q187 -73 221 -76v-467l-187 -195l187 -195v-357q-21 -28 -1112 -484q-134 -67 -170 -67q-322 220 -339 246q81 466 110 466q87 62 1197 1053zM652 1443v-9q-230 -1168 -246 -1205h8l-221 -1078h-93v1859q11 19 552 433zM931 369v-373h373v373h-373z
M2069 110v-526q0 -11 -382 -382h-340q-38 0 -534 374zM422 -229h9q242 -166 348 -255l492 -339v-9h-967z" />
    <glyph glyph-name="C" unicode="C" horiz-adv-x="2288" 
d="M618 2359h348q0 -10 -221 -806q0 -23 -297 -51l-195 501zM1806 2266l203 -212q-472 -851 -492 -900h-93v373h-374v-1468h-8q-348 901 -348 917q195 705 221 764zM974 2240h713v-8l-849 -492v8q26 106 136 492zM100 1960h8l213 -568q51 -107 662 -1689h-9
q-606 -221 -636 -221l-238 246v2232zM2052 1884l136 -144v-739h-637q480 868 501 883zM711 1392v-9l-110 -407q-19 0 -162 390h9zM1339 373h747v-416q-722 281 -747 306v110zM1424 178q734 -288 747 -288v-306q0 -11 -382 -382h-433q-24 16 -280 696q-17 28 -17 51h365v229z
M1110 -424q51 -120 127 -323h-645q-12 0 -110 110l628 221v-8z" />
    <glyph glyph-name="D" unicode="D" horiz-adv-x="2288" 
d="M177 2402h721l-619 -1349h-9q-93 551 -93 619v730zM991 2308h730q10 0 127 -127l-288 -212l-654 161q47 142 85 178zM1950 2130q10 0 238 -238v-93h-9q-481 119 -501 119v8q12 24 272 204zM855 2045q441 -104 459 -127q534 -1619 534 -1638l-467 -679l-908 221l-93 585
l569 331v-738h373v1493h-373v-729l-569 -331h-8q0 34 -68 416q509 1094 551 1196zM1347 1977q20 -8 739 -186v-1138q-197 -288 -204 -288zM100 1332h8q68 -441 340 -2062h-348v2062zM2154 645v-925l-153 -161q-472 118 -501 118v17q646 951 654 951zM533 -238
q1310 -314 1409 -331v-8q0 -12 -204 -204h-1103q-21 0 -77 416q-8 0 -25 127z" />
    <glyph glyph-name="E" unicode="E" horiz-adv-x="1948" 
d="M100 2342h492q-483 -500 -492 -501v501zM601 2274h993v-76q-58 -43 -773 -323q-40 -23 -721 -305v195q309 328 501 509zM1695 2130v-637h-186q-45 0 -246 204q-12 0 -187 161h-9v17zM1093 1816l-9 -17q186 -161 399 -356h-500v-374h746v-747h-746v-373h534v-8
q-305 -603 -390 -739h-153q-22 0 -51 399q-8 9 -229 2054zM635 1689h8l229 -2147q-403 386 -670 653v1324zM134 195q678 -652 679 -670q25 -210 25 -238h-704v908zM1661 17h187v-407q-195 -247 -288 -340h-280zM1831 -497v-297h-246v9q238 286 246 288z" />
    <glyph glyph-name="F" unicode="F" horiz-adv-x="1914" 
d="M321 2240h1493v-636l-1493 594v42zM100 2138h8q552 -218 552 -229q-117 -82 -560 -424v653zM787 1943q690 -280 908 -356v-94h-746v-373h712q-12 -21 -1400 -815q-32 -34 -59 -34v1214q0 7 585 458zM1695 1112v-128l-220 -611h-526v-899h-9q0 15 -484 899v9
q25 24 1239 730zM1789 849h8v-527h-203zM406 297q263 -481 263 -501l-501 145v237l238 127v-8zM151 -119h8l518 -144q221 -419 221 -433v-153h-747v730z" />
    <glyph glyph-name="G" unicode="G" horiz-adv-x="2271" 
d="M533 2342h356q-416 -340 -738 -585v203q0 12 382 382zM915 2240h59v-8q-628 -1266 -832 -1689h-8v1078q82 74 781 619zM1169 2206h620q11 0 382 -382v-280q-1022 382 -1112 408v-9q15 -25 976 -365q0 -8 136 -51v-441h-747v374h-374v-170l-220 220zM660 1527
q32 -45 221 -237v-1290h373v373h-187v374h331q103 -92 603 -620v-492q0 -11 -382 -382h-59q-781 240 -781 263q-195 898 -340 1587q204 416 221 424zM414 1061h17l322 -1545h-8q-587 195 -603 195q0 -8 -8 -8v772q0 17 280 586zM1543 781h560v-586q-560 575 -560 586z
M100 -340l1324 -432v-9h-951q-11 0 -373 374v67z" />
    <glyph glyph-name="H" unicode="H" horiz-adv-x="2237" 
d="M1848 2359h272v-475q-14 0 -272 475zM100 2291h747v-713q-16 -23 -747 -280v993zM1322 2240h450q0 -16 195 -348v-8l-645 -229v585zM2052 1858q85 -132 85 -161v-645q-726 569 -739 569v17l654 229v-9zM1322 1604q240 -170 246 -204l238 -1188q-1155 1011 -1273 1129v8
q67 17 416 144v-373h373v484zM507 1332q1 -9 1188 -1052q128 -102 128 -144q76 -379 76 -408q-330 -237 -348 -237q-229 85 -229 102v780h-373v-628q-730 314 -747 314v1154q27 28 305 119zM1644 1290q343 -258 476 -374v-1765h-51q-178 908 -187 925h9q-17 29 -247 1214z
M134 42q706 -299 747 -331v-458h-747v789zM1322 -441h8q152 -68 204 -85q-45 -46 -212 -153v238zM1882 -450h9q84 -422 84 -450h-670v34q190 148 255 179q84 76 322 237z" />
    <glyph glyph-name="I" unicode="I" horiz-adv-x="1117" 
d="M168 2334h594v-9q-29 -11 -424 -305q-170 32 -170 51v263zM821 2249h111v-458h-9q-516 127 -534 127v8q112 96 432 323zM100 1901h8q484 -1467 484 -1485l-467 -679q-16 8 -25 8v2156zM219 1901l747 -187v-1078q-175 -259 -238 -339q-509 1525 -509 1553v51zM1008 611h9
v-1180q-664 162 -688 162v17q450 653 679 1001zM134 -484h8l739 -170v-186h-747v356z" />
    <glyph glyph-name="J" unicode="J" 
d="M1169 2402h255v-9q-20 -6 -255 -144v153zM1543 2300h263v-9q-557 -990 -577 -1044h-9v866q279 187 323 187zM1891 2249h127v-2359q-651 256 -747 288v951q0 30 577 1052q29 68 43 68zM100 772h297q25 -84 450 -1171h-9q-488 -178 -517 -178l-221 229v1120zM516 721h433
v-747h373v153l747 -297v-220q0 -12 -382 -382h-594q-43 129 -577 1493zM906 -441l119 -297h-501q-10 0 -127 127l509 178v-8z" />
    <glyph glyph-name="K" unicode="K" horiz-adv-x="2322" 
d="M100 2249h747v-187q-1 -21 -747 -407v594zM1390 2249h747v-128q0 -13 -509 -1247h-17q0 13 -213 246q-107 116 -178 204l170 178v747zM2196 2045h9v-916l-374 -382q221 -205 221 -229q-17 -306 -60 -306q-20 -3 -526 -509h-8v297l-68 76zM983 2044v-899l186 178
q385 -436 408 -450q0 9 8 9v-9l-161 -390l-1188 127v1035q11 0 747 399zM202 577q892 -102 1171 -127v-9q0 -14 -136 -348l-288 280v-1035q0 -11 -77 -76h-34q-28 0 -636 382v933zM2103 399l119 -128v-1111h-264q34 382 136 1239h9zM1950 79v-8q0 -52 -102 -942h-458v399
q206 217 560 551zM202 -450q558 -343 568 -356h-568v356z" />
    <glyph glyph-name="L" unicode="L" horiz-adv-x="1999" 
d="M100 2334h721v-9q-28 -9 -721 -424v433zM966 2232v-1146h-9q-689 280 -738 289v424q45 20 747 433zM134 1341q399 -153 407 -170l-407 -305v475zM652 1188q301 -117 314 -136v-1010q-77 -59 -747 -441v1248zM1687 93h212v-747h-492q17 32 280 747zM1560 25v-8l-272 -738
h-679q-23 18 -203 356v9q42 42 653 381h501zM202 -458l187 -348h-272v305q29 43 85 43z" />
    <glyph glyph-name="M" unicode="M" horiz-adv-x="3051" 
d="M1992 2334q7 -1 611 -764h-8l-917 450q0 11 314 314zM2162 2317h738v-883q-141 54 -186 161q-30 22 -569 705q3 17 17 17zM100 2249h738q11 0 246 -246v-9l-984 -203v458zM1271 1977q7 -17 289 -288q195 195 212 195q136 -63 136 -77q-15 0 -594 -568q-101 -97 -221 -204
l-93 85v-178q-2 -7 -747 -721v1544q963 212 1018 212zM2009 1774q942 -459 942 -476v-1442h-8q-732 356 -738 373v611q23 97 246 704h-9q-22 0 -229 -611h-8v153l-561 -551q-13 3 -449 449q762 729 814 790zM1000 908v-1646h-747v925q0 6 747 721zM1984 246h8
q419 -212 433 -212v-17l-441 -85v314zM2603 -9q250 -127 263 -127v-237q-362 -363 -381 -365h-365v628zM2934 -509v-331h-339q0 7 339 331z" />
    <glyph glyph-name="N" unicode="N" horiz-adv-x="2576" 
d="M1615 2402h687q-9 -19 -119 -585h-8q-243 163 -331 246q-35 1 -229 161v178zM100 2351h738q146 -135 535 -535q-51 -17 -1273 -543v1078zM2434 2334h42v-1884q-41 -50 -492 -391v9q229 1168 246 1205h-8q8 11 212 1061zM1644 2138q164 -112 196 -144l-196 -76v220z
M1874 1879q323 -220 340 -246q-81 -466 -111 -466q-29 -13 -662 -578q-134 146 -534 535v-874q-339 245 -747 560v348l1290 543h8q0 -11 195 -195v289q197 84 221 84zM2145 1154v-8q-229 -1152 -246 -1205q-90 -65 -221 -170v602l-195 204zM151 696q456 -329 747 -560v-119
q-2 -13 -94 -85l-653 238v526zM2417 322h8v-619q0 -26 -102 -204l-645 229v9q95 86 739 585zM117 59l747 -263v-721h-747v984zM1628 -450h8l619 -220v-9q-118 -200 -118 -212h-509v441zM2451 -450h8v-373h-212v8q204 352 204 365z" />
    <glyph glyph-name="O" unicode="O" horiz-adv-x="2271" 
d="M499 2385h594q-51 -120 -229 -586l-696 246v9q0 11 331 331zM1212 2249h492q11 0 382 -382v-501l-747 -288v424h-373v-1494h364l17 9q0 -14 399 -721l-42 -34h-526q-36 2 -501 288l-212 764zM125 1918q661 -238 713 -263l-687 -1748l-43 -128h-8v2105zM2171 1358v-1698
q0 -11 -331 -330q-416 755 -416 772v959q0 17 551 220q126 60 196 77zM389 322l110 -415h-9q-230 19 -263 34q138 358 162 381zM202 -153q297 -28 297 -51q0 -12 153 -551h-145q-11 0 -373 373v42q0 20 68 187zM728 -594h8q381 -228 408 -238v-8h-357z" />
    <glyph glyph-name="P" unicode="P" horiz-adv-x="2126" 
d="M168 2402h441v-9q-339 -728 -382 -832h-8q-51 305 -51 365v476zM1314 2317h330q12 0 382 -382v-662q0 -40 -246 -374q-466 1403 -466 1418zM1755 798q-283 -416 -289 -416h-568v-170l-518 127l-93 586q16 0 611 365v-161h373v355l134 389q350 -1051 350 -1075zM1263 1530
h-373v-195l-611 -357h-9q0 35 -68 416q402 872 416 883h654q68 -202 125 -376l-134 -389v18zM100 1460h8l382 -2317h-390v2317zM2018 1061v-374q0 -11 -382 -382h-136q473 711 518 756zM431 305l509 -118v-934h-322q-22 0 -51 263q-9 11 -136 789z" />
    <glyph glyph-name="Q" unicode="Q" horiz-adv-x="2182" 
d="M550 2308h467q0 -21 -705 -237q0 10 238 237zM1144 2249h450q49 0 220 -195q12 0 187 -187v-263q-109 -126 -747 -781h-8v670h-365v-1052q-92 -106 -331 -348l-212 425q322 1536 348 1603q379 128 458 128zM635 2138q-323 -1505 -323 -1536h-17q-187 376 -187 416v883
q81 110 196 144l331 102v-9zM2082 71v-68q0 -12 -382 -382h-178v-373h-467q-12 0 -199 378zM592 68l323 322v-17h365v399q722 757 755 781v-1434l-9 -17q9 0 9 -9l-1233 -455q-87 176 -210 430zM100 840h17l772 -1578q-229 179 -229 195v136h-178q-12 0 -382 381v866z
M660 -637h9q197 -155 237 -178v-8h-229q-17 0 -17 17v169z" />
    <glyph glyph-name="R" unicode="R" horiz-adv-x="2152" 
d="M117 2291h1426q23 -7 68 -93v-9l-1511 -543v628q3 17 17 17zM1695 2257q17 -5 357 -356v-306q-70 104 -357 662zM1678 2147q268 -445 348 -637v-373q-46 29 -492 382q-446 351 -509 390v17l653 229v-8zM983 1884q254 -203 254 -221l238 -1188q-1155 1011 -1273 1129v8z
M1305 1621q162 -120 730 -569q8 -15 8 -34v-110l-186 -195q11 0 186 -187v-1307h-263q0 31 -237 1188h8q-17 28 -246 1214zM159 1607q1 -9 1188 -1052q128 -102 128 -144q76 -379 76 -408l-314 -220h-8v602h-365v-475h-9q-706 299 -747 331v1341q0 17 51 25zM881 1493v-364
h365v364h-365zM159 170q749 -316 756 -331v-357q-10 -20 -348 -254h-408v942zM1543 -110h8q136 -695 144 -713h-475v475q85 76 323 238zM957 -586v-220h-305v8q29 13 305 212z" />
    <glyph glyph-name="S" unicode="S" horiz-adv-x="2164" 
d="M732 2342h628q29 -24 136 -458h-9q-612 366 -755 441v17zM562 2266h111q69 -21 729 -416q162 -71 162 -187q68 -210 93 -339h-382v186h-365v-271h-8q-492 887 -492 908q114 119 152 119zM1470 2232h204q12 0 390 -391v-135q0 -38 -101 -289q-298 28 -298 51t-212 755z
M393 2105q475 -852 517 -959v-17h730q110 -86 110 -145l-670 -1731h-543q-12 0 -382 382v297q0 17 331 136q286 127 365 127h59v-187h365v365h-738q-12 0 -382 382v1112q0 10 238 238zM2056 1553h8v-314h-127v8l76 179q0 14 43 127zM1674 1400h8q230 -19 264 -34
q-33 -94 -51 -102h-187zM1801 993q11 0 255 -255v-1103q0 -11 -187 -187q-453 153 -585 212q483 1226 517 1333zM100 228h577v-9l-577 -221v230zM1250 -416l577 -204q0 -11 -178 -178h-544z" />
    <glyph glyph-name="T" unicode="T" horiz-adv-x="2109" 
d="M117 2274h484v-17q-34 -16 -501 -331v331q3 17 17 17zM1509 2302h458q0 -33 -144 -755h-170q-144 715 -144 755zM719 2249h739q22 0 170 -756h-187v-195q0 -22 -509 -127q-126 -42 -246 -59v381h-561v374q19 29 552 373q14 9 42 9zM1992 2172q17 -2 17 -17v-738h-161
q17 117 144 755zM1492 1264l8 -17v-1468h-17q-69 112 -738 1095v212zM686 823q27 -27 314 -450q0 -19 -306 -950h-8v1400zM1050 238q425 -595 425 -637v-433q0 -17 -17 -17h-739v68q0 29 331 1019z" />
    <glyph glyph-name="U" unicode="U" horiz-adv-x="2214" 
d="M117 2308h314l-323 -1960h-8v1943q3 17 17 17zM490 2249h382q17 -3 17 -17v-357q0 -22 -322 -84q0 -9 -161 -43zM1254 2249h738q17 -3 17 -17v-85q0 -29 -373 -102q-68 -25 -382 -93v297zM2113 2037v-1138h-17q-196 307 -653 968v17zM1305 1943l467 -679
q0 -27 -543 -1654q-15 0 -450 -111q-43 102 -552 1197q68 381 68 416q30 0 594 -348v-756h365v1910q0 14 51 25zM940 1841v-1043h-8l-577 339q84 540 101 594q30 0 484 110zM1806 1239q220 -296 220 -340v-1069q0 -22 -577 -153q-5 -6 -178 -50v8q9 15 535 1604zM219 602h8
q43 -102 645 -1400h-356q-12 0 -382 382v433q0 83 85 585zM2105 -255l9 -17v-135q0 -12 -212 -213h-9q-193 132 -305 230v8q34 0 517 127zM1514 -373q330 -239 331 -247l-152 -144h-722q-57 72 -110 229z" />
    <glyph glyph-name="V" unicode="V" horiz-adv-x="2187" 
d="M100 2300h738q17 -3 17 -17v-340q-25 0 -755 263v94zM1254 2249h747v-671l-747 -288v959zM101 2154h8l739 -263q-9 -55 -637 -1663q-51 -111 -85 -221h-8q-17 0 -17 17v2130zM889 1782v-1409q0 -11 178 -178l153 144q362 -650 399 -729l-280 -272q-694 401 -730 441
q-93 313 -212 756q51 146 484 1247h8zM2087 1543v-1553q-5 -17 -365 -364l-398 712v9l17 25v874q53 43 746 297zM360 467l110 -416h-9q-230 19 -263 34q138 358 162 382zM219 15q297 -28 297 -51l153 -569q-493 478 -493 501q0 18 43 119zM711 -348h8q686 -401 688 -416
l-68 -59h-373q-204 169 -204 280q-51 165 -51 195z" />
    <glyph glyph-name="W" unicode="W" horiz-adv-x="3238" 
d="M1628 2325h322q17 -3 17 -17v-59q0 -37 -76 -221h-17q0 13 -213 246q-5 0 -33 43v8zM151 2317h721q17 -3 17 -17v-119l-755 85v34q3 17 17 17zM2854 2345h230q17 -3 17 -17v-450q-40 37 -247 467zM1254 2249h331q43 0 161 -153q144 -161 153 -161q0 8 9 8v-8l-162 -391
q-419 43 -509 60v628q3 17 17 17zM2394 2253h450q23 -9 246 -450q43 -75 43 -119v-679q-58 49 -756 891v340q3 17 17 17zM168 2164q689 -68 755 -85v-916q-162 145 -755 712v289zM2026 2130h9v-620q-81 -91 -441 -432v8q212 501 432 1044zM100 1850q322 -299 322 -306v-8
q-277 -362 -322 -407v721zM2357 1850q340 -389 340 -407q0 -26 -348 -1562h-9q0 20 -161 306v8l178 187v1468zM1201 1574l492 -51v-8q-203 -545 -263 -594q-75 -62 -229 -212v865zM465 1527q407 -387 407 -398v-747q0 -12 187 -187l178 187v271q0 39 93 111q644 645 662 645
v-77q-12 -67 -339 -908q-34 -75 -356 -916l-1180 509v1069q338 440 348 441zM2739 1366h9q390 -445 390 -475v-934q0 -10 -543 -543q-204 376 -204 391zM1996 1156h8v-849q0 -11 136 -136l-110 -984h25l102 959h9q0 -52 229 -442l170 -331v-8l-196 -187h-365l-373 365h-8
l-179 -170q-48 26 -118 51zM131 -101h17q1125 -494 1247 -535v-8q0 -11 -178 -178h-365q-382 371 -721 721z" />
    <glyph glyph-name="X" unicode="X" horiz-adv-x="2152" 
d="M142 2300h671v-9q-77 -161 -102 -161l-586 -161v314q3 17 17 17zM864 2249q17 -3 17 -17v-730q0 -11 186 -187l179 187v645h8l484 -1290l-43 -34q-1196 687 -1230 721v9l382 696h17zM1314 2249h721q17 -3 17 -17v-1103q0 -11 -238 -238h-8l-509 1341v8zM686 2105v-9
q-227 -430 -272 -501q-311 174 -314 187v144q20 29 365 111zM125 1706h9l1544 -900v-8q-12 0 -50 -51q11 0 50 -51q-422 -754 -432 -755q0 80 -43 110l-136 127h-8q-177 -187 -255 -187v-8q-492 365 -602 467l297 305q-12 0 -374 374v577zM1738 721h8q11 0 306 -305v-348
q0 -17 -755 -306v145q0 21 441 814zM168 407l585 -458l-645 -255v654q0 12 60 59zM2001 -9v-738h-755v433q0 15 755 305zM923 -59v-739h-288q-17 0 -459 255q0 -9 -8 -9v187q11 23 755 306zM125 -594l399 -229v-9h-399v238z" />
    <glyph glyph-name="Y" unicode="Y" horiz-adv-x="2118" 
d="M1390 2342h382v-8q-102 -292 -102 -314l17 -9q102 331 119 331h186v-560q-163 0 -178 42l-424 510v8zM125 2283h603v-9q0 -141 -59 -178q-20 0 -535 -518h-9v705zM1229 2283h68q48 0 178 -178q184 -211 314 -374l-569 26l-8 17v492q2 17 17 17zM889 2257q17 -2 17 -17
v-738q0 -11 178 -178q12 0 179 178v204h8l747 -26v-551l-560 -569v-305q-15 0 -323 -281q-220 -195 -220 -203q8 0 8 -9h-8q-203 81 -204 94v704l-102 110q0 65 68 637h9l543 -1231q17 0 17 26q-391 862 -552 1239l-17 -9q93 867 110 925h102zM686 2028v-8l-145 -1384h-8
q-24 14 -433 433v391zM1466 178v-687l-526 212v17q15 0 518 458h8zM652 -238q746 -299 746 -314v-246h-746v560z" />
    <glyph glyph-name="Z" unicode="Z" horiz-adv-x="2186" 
d="M159 2308h1087v-17q-297 -553 -348 -628q-406 -110 -450 -110h-34q-34 37 -246 645q-19 0 -26 102zM2043 2274q17 -2 17 -17v-1111q0 -11 -543 -544q-704 408 -704 416l492 501h-390v8l407 747h721zM125 2105q19 -3 238 -612h-238v612zM906 1595v-8q-38 -85 -51 -85h-263
v8q39 0 314 85zM762 984q666 -385 713 -407v-8q-539 -546 -543 -552h1086q17 -3 17 -17v-59q0 -17 -866 -348q-151 -64 -169 -77q-707 529 -841 654v203zM100 119h17l789 -611q-608 -246 -645 -246h-144q-17 0 -17 17v840zM2086 -136v-645h-1621v9z" />
    <glyph glyph-name="quoteleft" unicode="&#x2018;" horiz-adv-x="998" 
d="M864 1429h-331l-17 8q221 667 238 688q89 25 127 25v-704q-3 -17 -17 -17zM160 1463q-17 2 -17 17v509q0 19 517 136q0 8 77 25v-8l-230 -679h-347zM109 2031l-9 17v170q0 12 102 102q135 -84 263 -195v-9q-27 0 -356 -85zM541 2125q-280 200 -280 212l263 254h374v-382z
" />
    <glyph glyph-name="quoteright" unicode="&#x2019;" horiz-adv-x="998" 
d="M134 2591h331l17 -8q-221 -667 -238 -688q-89 -25 -127 -25v704q3 17 17 17zM838 2557q17 -2 17 -17v-509q0 -19 -517 -136q0 -8 -77 -25v8l230 679h347zM889 1989l9 -17v-170q0 -12 -102 -102q-135 84 -263 195v9q27 0 356 85zM457 1895q280 -200 280 -212l-263 -254
h-374v382z" />
    <glyph glyph-name="quotedblleft" unicode="&#x201c;" horiz-adv-x="2115" 
d="M864 1429h-331l-17 8q221 667 238 688q89 25 127 25v-704q-3 -17 -17 -17zM160 1463q-17 2 -17 17v509q0 19 517 136q0 8 77 25v-8l-230 -679h-347zM109 2031l-9 17v170q0 12 102 102q135 -84 263 -195v-9q-27 0 -356 -85zM541 2125q-280 200 -280 212l263 254h374v-382z
M1981 1429h-331l-17 8q221 667 238 688q89 25 127 25v-704q-3 -17 -17 -17zM1277 1463q-17 2 -17 17v509q0 19 517 136q0 8 77 25v-8l-230 -679h-347zM1226 2031l-9 17v170q0 12 102 102q135 -84 263 -195v-9q-27 0 -356 -85zM1658 2125q-280 200 -280 212l263 254h374v-382
z" />
    <glyph glyph-name="quotedblright" unicode="&#x201d;" horiz-adv-x="2115" 
d="M134 2591h331l17 -8q-221 -667 -238 -688q-89 -25 -127 -25v704q3 17 17 17zM838 2557q17 -2 17 -17v-509q0 -19 -517 -136q0 -8 -77 -25v8l230 679h347zM889 1989l9 -17v-170q0 -12 -102 -102q-135 84 -263 195v9q27 0 356 85zM457 1895q280 -200 280 -212l-263 -254
h-374v382zM1251 2591h331l17 -8q-221 -667 -238 -688q-89 -25 -127 -25v704q3 17 17 17zM1955 2557q17 -2 17 -17v-509q0 -19 -517 -136q0 -8 -77 -25v8l230 679h347zM2006 1989l9 -17v-170q0 -12 -102 -102q-135 84 -263 195v9q27 0 356 85zM1574 1895q280 -200 280 -212
l-263 -254h-374v382z" />
    <glyph glyph-name="quotesingle" unicode="'" horiz-adv-x="957" 
d="M94 2591h331l17 -8q-221 -667 -238 -688q-89 -25 -127 -25v704q3 17 17 17zM798 2557q17 -2 17 -17v-509q0 -19 -517 -136q0 -8 -77 -25v8l230 679h347zM849 1989l9 -17v-170q0 -12 -102 -102q-135 84 -263 195v9q27 0 356 85zM417 1895q280 -200 280 -212l-263 -254
h-374v382z" />
    </font>
</defs>
</svg>
